<?xml version="1.0" encoding="UTF-8" standalone="no"?><!-- Generator: Gravit.io --><svg xmlns="http://www.w3.org/2000/svg" xmlns:xlink="http://www.w3.org/1999/xlink" style="isolation:isolate" viewBox="0 0 150 150" width="150pt" height="150pt"><circle vector-effect="non-scaling-stroke" cx="75" cy="75" r="65" fill="rgb(34,34,34)"/><g><g><g><g><path d=" M 105.701 109.582 L 44.299 109.582 C 43.128 109.582 42.179 108.633 42.179 107.463 L 42.179 42.537 C 42.179 41.367 43.128 40.418 44.299 40.418 L 105.701 40.418 C 106.872 40.418 107.821 41.367 107.821 42.537 L 107.821 107.463 C 107.821 108.633 106.872 109.582 105.701 109.582 Z  M 46.418 105.344 L 103.582 105.344 L 103.582 44.656 L 46.418 44.656 L 46.418 105.344 Z " fill="rgb(255,255,255)"/></g><g><path d=" M 94.32 58.228 L 55.68 58.228 C 54.51 58.228 53.561 57.28 53.561 56.109 C 53.561 54.939 54.51 53.99 55.68 53.99 L 94.32 53.99 C 95.49 53.99 96.439 54.939 96.439 56.109 C 96.439 57.28 95.49 58.228 94.32 58.228 Z " fill="rgb(255,255,255)"/></g><g><path d=" M 94.32 70.822 L 55.68 70.822 C 54.51 70.822 53.561 69.874 53.561 68.703 C 53.561 67.533 54.51 66.584 55.68 66.584 L 94.32 66.584 C 95.49 66.584 96.439 67.533 96.439 68.703 C 96.439 69.874 95.49 70.822 94.32 70.822 Z " fill="rgb(255,255,255)"/></g><g><path d=" M 94.32 83.416 L 55.68 83.416 C 54.51 83.416 53.561 82.468 53.561 81.297 C 53.561 80.127 54.51 79.178 55.68 79.178 L 94.32 79.178 C 95.49 79.178 96.439 80.127 96.439 81.297 C 96.439 82.468 95.49 83.416 94.32 83.416 Z " fill="rgb(255,255,255)"/></g><g><path d=" M 71.853 96.01 L 55.68 96.01 C 54.51 96.01 53.561 95.061 53.561 93.891 C 53.561 92.72 54.51 91.772 55.68 91.772 L 71.853 91.772 C 73.023 91.772 73.972 92.72 73.972 93.891 C 73.972 95.061 73.023 96.01 71.853 96.01 Z " fill="rgb(255,255,255)"/></g></g></g></g></svg>