<?xml version="1.0" encoding="UTF-8" standalone="no"?><!-- Generator: Gravit.io --><svg xmlns="http://www.w3.org/2000/svg" xmlns:xlink="http://www.w3.org/1999/xlink" style="isolation:isolate" viewBox="0 0 150 150" width="150pt" height="150pt"><circle vector-effect="non-scaling-stroke" cx="75" cy="75" r="65" fill="rgb(34,34,34)"/><g><g><path d=" M 63.567 61.009 L 49.574 75.004 L 63.567 88.993 C 65.13 90.558 65.13 93.096 63.567 94.659 C 62.782 95.445 61.762 95.834 60.734 95.834 C 59.706 95.834 58.686 95.445 57.9 94.659 L 41.074 77.835 C 40.323 77.086 39.9 76.066 39.9 75.004 C 39.9 73.944 40.323 72.922 41.074 72.17 L 57.9 55.342 C 59.465 53.779 62.002 53.779 63.567 55.342 C 65.13 56.907 65.13 59.44 63.567 61.009 Z  M 108.926 72.168 L 92.102 55.34 C 90.537 53.777 88 53.777 86.435 55.34 C 84.87 56.905 84.87 59.442 86.435 61.007 L 100.426 75.002 L 86.435 88.993 C 84.87 90.558 84.87 93.096 86.435 94.659 C 87.22 95.445 88.242 95.834 89.268 95.834 C 90.294 95.834 91.318 95.445 92.102 94.659 L 108.926 77.835 C 109.677 77.084 110.1 76.064 110.1 75.002 C 110.1 73.944 109.677 72.92 108.926 72.168 Z  M 82.004 47.576 C 79.848 47.02 77.674 48.323 77.125 50.463 L 65.102 97.549 C 64.557 99.693 65.85 101.877 67.992 102.426 C 68.326 102.512 68.661 102.552 68.988 102.552 C 70.779 102.552 72.406 101.344 72.869 99.537 L 84.892 52.451 C 85.441 50.305 84.146 48.123 82.004 47.576 Z " fill="rgb(255,255,255)"/></g></g></svg>