<?xml version="1.0" encoding="UTF-8" standalone="no"?><!-- Generator: Gravit.io --><svg xmlns="http://www.w3.org/2000/svg" xmlns:xlink="http://www.w3.org/1999/xlink" style="isolation:isolate" viewBox="0 0 150 150" width="150pt" height="150pt"><circle vector-effect="non-scaling-stroke" cx="75" cy="75" r="65" fill="rgb(34,34,34)"/><g><g><path d=" M 106.82 43.18 C 98.32 34.681 87.02 30 75 30 C 62.98 30 51.68 34.681 43.18 43.18 C 34.681 51.68 30 62.98 30 75 C 30 87.02 34.681 98.32 43.18 106.82 C 51.68 115.319 62.98 120 75 120 C 87.02 120 98.32 115.319 106.82 106.82 C 115.319 98.32 120 87.02 120 75 C 120 62.98 115.319 51.68 106.82 43.18 Z  M 75 114.433 C 53.257 114.433 35.567 96.743 35.567 75 C 35.567 53.257 53.257 35.567 75 35.567 C 96.743 35.567 114.433 53.257 114.433 75 C 114.433 96.743 96.743 114.433 75 114.433 Z " fill="rgb(255,255,255)"/><path d=" M 63.599 92.457 L 93.824 75 L 63.599 57.543 L 63.599 92.457 Z " fill="rgb(255,255,255)"/></g></g></svg>